#!OML:ASF F:\VICON\USERDATA\INSTALL\rory3\rory3.ASF
:FULLY-SPECIFIED
:DEGREES
290
root 5.0656 15.8275 -3.88744 -178.737 49.9903 -175.673
lowerback 7.31003 -0.530245 1.0509
upperback -1.57965 -0.56358 0.712772
thorax -5.75307 -0.298713 0.219949
lowerneck -12.125 -8.21886 -12.2768
upperneck 22.3207 -10.3508 8.1932
head 10.2099 -4.80217 3.60087
rclavicle -1.14357e-013 -1.37161e-014
rhumerus -41.6075 -7.05626 -81.6723
rradius 24.5467
rwrist 13.4906
rhand -16.9782 16.0776
rfingers 7.12502
rthumb 9.25635 -13.6992
lclavicle -1.14357e-013 -1.37161e-014
lhumerus -35.9816 17.878 74.0098
lradius 17.8656
lwrist -13.3024
lhand -10.9966 12.8537
lfingers 7.12502
lthumb 15.0237 42.2886
rfemur -16.7958 6.06918 28.3886
rtibia 29.6363
rfoot -8.49861 -16.5781
rtoes 4.87453
lfemur 0.28039 2.70388 -17.8331
ltibia 54.6872
lfoot 19.7419 10.5706
ltoes -1.67574
291
root 5.1634 15.8261 -3.94238 -178.55 50.0474 -175.361
lowerback 7.41612 -0.454683 1.23753
upperback -1.57216 -0.438476 0.775819
thorax -5.80623 -0.241868 0.166362
lowerneck -12.0292 -8.23051 -12.3662
upperneck 22.2786 -10.3669 8.24446
head 10.1871 -4.81387 3.63389
rclavicle 7.1227e-014 5.96354e-016
rhumerus -41.476 -6.75544 -81.7651
rradius 24.8382
rwrist 13.285
rhand -17.1362 15.7597
rfingers 7.12502
rthumb 9.10395 -14.0238
lclavicle 7.1227e-014 5.96354e-016
lhumerus -36.1745 17.9153 73.9232
lradius 17.8908
lwrist -13.3028
lhand -10.8351 12.6137
lfingers 7.12502
lthumb 15.1793 42.037
rfemur -16.2462 5.83722 28.7666
rtibia 29.5735
rfoot -8.87925 -16.2777
rtoes 4.01032
lfemur -1.03694 2.8118 -17.5573
ltibia 56.5209
lfoot 20.7191 11.4071
ltoes 0.870587
292
root 5.26074 15.8228 -3.99578 -178.509 50.1261 -175.302
lowerback 7.41721 -0.396857 1.20043
upperback -1.54807 -0.362315 0.818521
thorax -5.78046 -0.201953 0.222113
lowerneck -11.9779 -8.21274 -12.5314
upperneck 22.2913 -10.3336 8.34531
head 10.1942 -4.80208 3.70369
rclavicle -5.79209e-014 -8.05078e-015
rhumerus -41.2435 -6.42306 -81.8595
rradius 25.0766
rwrist 13.1906
rhand -17.3249 15.7968
rfingers 7.12502
rthumb 8.9218 -13.9946
lclavicle -5.79209e-014 -8.05078e-015
lhumerus -36.371 17.7782 73.9637
lradius 18.111
lwrist -12.9481
lhand -10.6098 12.7798
lfingers 7.12502
lthumb 15.3964 42.1865
rfemur -15.7884 5.69297 28.9707
rtibia 29.5774
rfoot -9.2004 -16.1274
rtoes 2.90725
lfemur -2.36917 2.91568 -17.4967
ltibia 58.2282
lfoot 20.7575 11.974
ltoes 2.05102
293
root 5.35213 15.8179 -4.04835 -178.322 50.1486 -175.031
lowerback 7.47694 -0.363288 1.34399
upperback -1.50312 -0.298624 0.87865
thorax -5.76753 -0.17366 0.196322
lowerneck -11.9847 -8.21461 -12.5714
upperneck 22.281 -10.328 8.35289
head 10.1941 -4.80222 3.71329
rclavicle -2.06581e-014 -5.76476e-015
rhumerus -40.913 -6.10369 -81.9463
rradius 25.3123
rwrist 12.9592
rhand -17.183 15.3216
rfingers 7.12502
rthumb 9.05875 -14.4639
lclavicle -2.06581e-014 -5.76476e-015
lhumerus -36.5287 17.5718 74.0567
lradius 18.4224
lwrist -12.4245
lhand -10.6928 12.947
lfingers 7.12502
lthumb 15.3164 42.3598
rfemur -15.3783 5.50023 29.3024
rtibia 29.6343
rfoot -9.4998 -16.0736
rtoes 2.15973
lfemur -3.70312 3.04488 -17.2654
ltibia 59.8327
lfoot 20.4201 12.1178
ltoes 4.09274
294
root 5.4424 15.8126 -4.10036 -178.165 50.1618 -174.812
lowerback 7.53244 -0.328377 1.51349
upperback -1.45626 -0.234232 0.884958
thorax -5.75034 -0.147015 0.0997315
lowerneck -12.0096 -8.2353 -12.5477
upperneck 22.2726 -10.3617 8.36058
head 10.1988 -4.81462 3.70617
rclavicle 4.01607e-014 -3.97569e-016
rhumerus -40.5512 -5.70113 -82.1537
rradius 25.5958
rwrist 12.5711
rhand -17.012 14.0199
rfingers 7.12502
rthumb 9.22372 -15.7584
lclavicle 4.01607e-014 -3.97569e-016
lhumerus -36.6405 17.5923 73.9757
lradius 18.6734
lwrist -12.1707
lhand -10.782 12.8776
lfingers 7.12502
lthumb 15.2305 42.297
rfemur -15.0001 5.35389 29.5933
rtibia 29.6944
rfoot -9.72168 -16.1146
rtoes 1.28166
lfemur -5.01853 3.12048 -17.0803
ltibia 61.3356
lfoot 19.2552 12.0517
ltoes 5.38715
295
root 5.53534 15.8077 -4.14922 -178.186 50.2351 -174.752
lowerback 7.63009 -0.254461 1.50782
upperback -1.37995 -0.136652 0.860551
thorax -5.72476 -0.0988104 0.0654439
lowerneck -12.0457 -8.25621 -12.4908
upperneck 22.2757 -10.4045 8.37809
head 10.2092 -4.82661 3.69573
rclavicle 5.93652e-014 1.74931e-014
rhumerus -40.1791 -5.58775 -82.2475
rradius 25.7895
rwrist 12.5225
rhand -17.0135 13.4858
rfingers 7.12502
rthumb 9.22236 -16.2925
lclavicle 5.93652e-014 1.74931e-014
lhumerus -36.6574 17.2962 74.0803
lradius 18.9724
lwrist -11.4369
lhand -10.9236 12.898
lfingers 7.12502
lthumb 15.094 42.3277
rfemur -14.5129 5.39472 29.7865
rtibia 29.7137
rfoot -9.90672 -16.2958
rtoes 1.14377
lfemur -6.25098 3.17844 -17.0375
ltibia 62.7286
lfoot 17.414 11.5745
ltoes 3.1731
